<?xml version="1.0" encoding="UTF-8" standalone="no"?>
<svg
   width="94.019997mm"
   height="24.746mm"
   viewBox="0 0 94.019984 24.746"
   version="1.1"
   id="svg5"
   xml:space="preserve"
   sodipodi:docname="logo_font_path.svg"
   inkscape:version="1.4.2 (ebf0e940d0, 2025-05-08)"
   xmlns:inkscape="http://www.inkscape.org/namespaces/inkscape"
   xmlns:sodipodi="http://sodipodi.sourceforge.net/DTD/sodipodi-0.dtd"
   xmlns:xlink="http://www.w3.org/1999/xlink"
   xmlns="http://www.w3.org/2000/svg"
   xmlns:svg="http://www.w3.org/2000/svg"><sodipodi:namedview
     id="namedview1"
     pagecolor="#505050"
     bordercolor="#eeeeee"
     borderopacity="1"
     inkscape:showpageshadow="0"
     inkscape:pageopacity="0"
     inkscape:pagecheckerboard="0"
     inkscape:deskcolor="#d1d1d1"
     inkscape:document-units="mm"
     inkscape:zoom="1.4142136"
     inkscape:cx="131.52186"
     inkscape:cy="352.13917"
     inkscape:window-width="1993"
     inkscape:window-height="1879"
     inkscape:window-x="0"
     inkscape:window-y="0"
     inkscape:window-maximized="0"
     inkscape:current-layer="svg5" /><defs
     id="defs2"><linearGradient
       id="linearGradient2795"><stop
         style="stop-color:#b8b8b8;stop-opacity:0.49803922;"
         offset="0"
         id="stop2797" /><stop
         style="stop-color:#7f7f7f;stop-opacity:0;"
         offset="1"
         id="stop2799" /></linearGradient><linearGradient
       id="linearGradient2787"><stop
         style="stop-color:#7f7f7f;stop-opacity:0.5;"
         offset="0"
         id="stop2789" /><stop
         style="stop-color:#7f7f7f;stop-opacity:0;"
         offset="1"
         id="stop2791" /></linearGradient><linearGradient
       id="linearGradient3676"><stop
         style="stop-color:#b2b2b2;stop-opacity:0.5;"
         offset="0"
         id="stop3678" /><stop
         style="stop-color:#b3b3b3;stop-opacity:0;"
         offset="1"
         id="stop3680" /></linearGradient><linearGradient
       id="linearGradient3236"><stop
         style="stop-color:#f4f4f4;stop-opacity:1"
         offset="0"
         id="stop3244" /><stop
         style="stop-color:white;stop-opacity:1"
         offset="1"
         id="stop3240" /></linearGradient><linearGradient
       id="linearGradient4671"><stop
         style="stop-color:#ffd43b;stop-opacity:1;"
         offset="0"
         id="stop4673" /><stop
         style="stop-color:#ffe873;stop-opacity:1"
         offset="1"
         id="stop4675" /></linearGradient><linearGradient
       id="linearGradient4689"><stop
         style="stop-color:#5a9fd4;stop-opacity:1;"
         offset="0"
         id="stop4691" /><stop
         style="stop-color:#306998;stop-opacity:1;"
         offset="1"
         id="stop4693" /></linearGradient><linearGradient
       x1="224.23996"
       y1="144.75717"
       x2="-65.308502"
       y2="144.75717"
       id="linearGradient2987"
       xlink:href="#linearGradient4671"
       gradientUnits="userSpaceOnUse"
       gradientTransform="translate(100.2702,99.61116)" /><linearGradient
       x1="172.94208"
       y1="77.475983"
       x2="26.670298"
       y2="76.313133"
       id="linearGradient2990"
       xlink:href="#linearGradient4689"
       gradientUnits="userSpaceOnUse"
       gradientTransform="translate(100.2702,99.61116)" /><linearGradient
       xlink:href="#linearGradient4671"
       id="linearGradient2255"
       gradientUnits="userSpaceOnUse"
       gradientTransform="matrix(0.562541,0,0,0.567972,-11.5974,-7.60954)"
       x1="224.23996"
       y1="144.75717"
       x2="-65.308502"
       y2="144.75717" /><linearGradient
       xlink:href="#linearGradient4689"
       id="linearGradient2258"
       gradientUnits="userSpaceOnUse"
       gradientTransform="matrix(0.562541,0,0,0.567972,-11.5974,-7.60954)"
       x1="172.94208"
       y1="76.176224"
       x2="26.670298"
       y2="76.313133" /><radialGradient
       xlink:href="#linearGradient2795"
       id="radialGradient2801"
       cx="61.518883"
       cy="132.28575"
       fx="61.518883"
       fy="132.28575"
       r="29.036913"
       gradientTransform="matrix(1,0,0,0.177966,0,108.7434)"
       gradientUnits="userSpaceOnUse" /><linearGradient
       xlink:href="#linearGradient4671"
       id="linearGradient1475"
       gradientUnits="userSpaceOnUse"
       gradientTransform="matrix(0.562541,0,0,0.567972,4.5792503,35.633427)"
       x1="150.96111"
       y1="192.35176"
       x2="112.03144"
       y2="137.27299" /><linearGradient
       xlink:href="#linearGradient4689"
       id="linearGradient1478"
       gradientUnits="userSpaceOnUse"
       gradientTransform="matrix(0.562541,0,0,0.567972,4.5792503,35.633427)"
       x1="26.648937"
       y1="20.603781"
       x2="135.66525"
       y2="114.39767" /><linearGradient
       xlink:href="#linearGradient4671"
       id="linearGradient1475-3"
       gradientUnits="userSpaceOnUse"
       gradientTransform="matrix(0.1052101,0,0,0.10622584,1.4858929,-33.477472)"
       x1="150.96111"
       y1="192.35176"
       x2="112.03144"
       y2="137.27299" /><linearGradient
       inkscape:collect="always"
       xlink:href="#linearGradient4671"
       id="linearGradient2"
       gradientUnits="userSpaceOnUse"
       gradientTransform="matrix(0.1052101,0,0,0.09324778,17.392023,-29.027934)"
       x1="168.80052"
       y1="512.14233"
       x2="44.760296"
       y2="343.49042" /><linearGradient
       inkscape:collect="always"
       xlink:href="#linearGradient4671"
       id="linearGradient2-6"
       gradientUnits="userSpaceOnUse"
       gradientTransform="matrix(0.1052101,0,0,0.09324778,35.796023,-29.027932)"
       x1="168.80052"
       y1="512.14233"
       x2="44.760296"
       y2="343.49042" /><linearGradient
       inkscape:collect="always"
       xlink:href="#linearGradient4671"
       id="linearGradient2-3"
       gradientUnits="userSpaceOnUse"
       gradientTransform="matrix(0.1052101,0,0,0.09324778,54.200023,-29.027931)"
       x1="168.80052"
       y1="512.14233"
       x2="44.760296"
       y2="343.49042" /><linearGradient
       inkscape:collect="always"
       xlink:href="#linearGradient4671"
       id="linearGradient4"
       gradientUnits="userSpaceOnUse"
       gradientTransform="matrix(0.1052101,0,0,0.09324778,72.604028,-29.027933)"
       x1="168.80052"
       y1="512.14233"
       x2="44.760296"
       y2="343.49042" /><linearGradient
       xlink:href="#linearGradient4689"
       id="linearGradient1478-1"
       gradientUnits="userSpaceOnUse"
       gradientTransform="matrix(0.562541,0,0,0.567972,4.5792503,35.633427)"
       x1="26.648937"
       y1="20.603781"
       x2="135.66525"
       y2="114.39767" /><linearGradient
       inkscape:collect="always"
       xlink:href="#linearGradient4689"
       id="linearGradient5"
       gradientUnits="userSpaceOnUse"
       gradientTransform="matrix(0.562541,0,0,0.49858044,11.495293,-6.3680282)"
       x1="-15.006435"
       y1="26.121193"
       x2="9.9508333"
       y2="55.435482" /><linearGradient
       inkscape:collect="always"
       xlink:href="#linearGradient4671"
       id="linearGradient6"
       gradientUnits="userSpaceOnUse"
       gradientTransform="matrix(0.1052101,0,0,0.10622584,31.796312,-34.564575)"
       x1="-172.53194"
       y1="512.15149"
       x2="-250.97743"
       y2="401.20218" /></defs><path
     id="rect1"
     style="opacity:1;vector-effect:none;fill:url(#linearGradient2);stroke-width:0.17523;stop-color:#000000;stop-opacity:1"
     d="m 24.584688,1.753 h 8.042877 c 2.316078,0 4.180645,1.8645677 4.180645,4.180645 v 9.63871 c 0,2.316077 -1.864567,4.180645 -4.180645,4.180645 h -8.042877 c -2.316077,0 -4.180645,-1.864568 -4.180645,-4.180645 v -9.63871 c 0,-2.3160773 1.864568,-4.180645 4.180645,-4.180645 z" /><path
     style="font-size:16.9333px;line-height:1.5;font-family:'Arial Black';-inkscape-font-specification:'Arial Black, ';baseline-shift:baseline;fill:#646464;stroke-width:0"
     d="m 30.677315,4.5849137 h 3.737232 v 7.2264183 q 0,1.074867 -0.338997,2.03398 -0.330728,0.950845 -1.050063,1.670179 -0.711066,0.711066 -1.496546,1.000454 -1.091404,0.405142 -2.621024,0.405142 -0.884699,0 -1.934762,-0.124023 -1.041794,-0.124023 -1.744593,-0.487824 -0.702798,-0.37207 -1.289841,-1.050063 -0.578775,-0.677994 -0.793748,-1.397328 -0.347265,-1.15755 -0.347265,-2.050517 V 4.5849137 h 3.737232 v 7.4000503 q 0,0.992186 0.545702,1.554424 0.55397,0.553971 1.52962,0.553971 0.96738,0 1.513082,-0.545703 0.553971,-0.55397 0.553971,-1.562692 z"
     id="text3"
     aria-label="U" /><path
     id="rect1-2"
     style="vector-effect:none;fill:url(#linearGradient2-6);stroke-width:0.17523;stop-color:#000000"
     d="m 42.988689,1.753 h 8.042878 c 2.316077,0 4.180645,1.8645677 4.180645,4.180645 v 9.63871 c 0,2.316077 -1.864568,4.180645 -4.180645,4.180645 h -8.042878 c -2.316077,0 -4.180645,-1.864568 -4.180645,-4.180645 v -9.63871 c 0,-2.3160773 1.864568,-4.180645 4.180645,-4.180645 z" /><path
     style="font-size:16.9333px;line-height:1.5;font-family:'Arial Black';-inkscape-font-specification:'Arial Black, ';baseline-shift:baseline;fill:#646464;stroke-width:0"
     d="m 49.081316,4.5849137 h 3.737232 v 7.2264183 q 0,1.074867 -0.338997,2.03398 -0.330728,0.950845 -1.050063,1.670179 -0.711066,0.711066 -1.496546,1.000454 -1.091404,0.405142 -2.621024,0.405142 -0.884698,0 -1.934761,-0.124023 -1.041795,-0.124023 -1.744593,-0.487824 -0.702798,-0.37207 -1.289842,-1.050063 -0.578774,-0.677994 -0.793748,-1.397328 -0.347265,-1.15755 -0.347265,-2.050517 V 4.5849137 h 3.737232 v 7.4000503 q 0,0.992186 0.545702,1.554424 0.553971,0.553971 1.52962,0.553971 0.967381,0 1.513083,-0.545703 0.55397,-0.55397 0.55397,-1.562692 z"
     id="text3-0"
     aria-label="U" /><path
     id="rect1-28"
     style="vector-effect:none;fill:url(#linearGradient2-3);stroke-width:0.17523;stop-color:#000000"
     d="m 61.392689,1.753 h 8.042877 c 2.316077,0 4.180645,1.8645677 4.180645,4.180645 v 9.63871 c 0,2.316077 -1.864568,4.180645 -4.180645,4.180645 h -8.042877 c -2.316078,0 -4.180645,-1.864568 -4.180645,-4.180645 v -9.63871 c 0,-2.3160773 1.864567,-4.180645 4.180645,-4.180645 z" /><path
     style="font-size:16.9333px;line-height:1.5;font-family:'Arial Black';-inkscape-font-specification:'Arial Black, ';baseline-shift:baseline;fill:#646464;stroke-width:0"
     d="m 63.537245,4.6924004 h 3.753769 V 16.813601 h -3.753769 z"
     id="text3-9"
     aria-label="I" /><path
     id="rect1-28-1"
     style="vector-effect:none;fill:url(#linearGradient4);stroke-width:0.17523;stop-color:#000000"
     d="m 79.796688,1.753 h 8.042877 c 2.316078,0 4.180645,1.8645677 4.180645,4.180645 v 9.63871 c 0,2.316077 -1.864567,4.180645 -4.180645,4.180645 h -8.042877 c -2.316077,0 -4.180645,-1.864568 -4.180645,-4.180645 v -9.63871 c 0,-2.3160773 1.864568,-4.180645 4.180645,-4.180645 z" /><path
     style="font-size:16.9333px;line-height:1.5;font-family:'Arial Black';-inkscape-font-specification:'Arial Black, ';baseline-shift:baseline;fill:#646464;stroke-width:0"
     d="m 78.241219,4.6924004 h 5.564507 q 1.645375,0 2.654097,0.4464835 1.01699,0.4464835 1.678447,1.281573 0.661457,0.8350895 0.959113,1.9430301 0.297655,1.1079405 0.297655,2.348172 0,1.94303 -0.446483,3.017898 -0.438215,1.0666 -1.223696,1.794202 -0.78548,0.719335 -1.686715,0.959113 -1.231964,0.330729 -2.232418,0.330729 h -5.564507 z m 3.745501,2.7450467 v 6.6228389 h 0.917771 q 1.174086,0 1.670179,-0.256315 0.496093,-0.264583 0.777212,-0.909503 0.281119,-0.653189 0.281119,-2.108395 0,-1.9264933 -0.628384,-2.6375596 -0.628384,-0.7110663 -2.083589,-0.7110663 z"
     id="text3-9-9"
     aria-label="D" /><path
     id="rect1-28-1-0"
     style="opacity:1;vector-effect:none;fill:url(#linearGradient5);stroke-width:0.17523;stop-color:#000000;stop-opacity:1"
     d="m 6.1806433,4.9941397 h 8.0428777 c 2.316077,0 4.180645,1.8645676 4.180645,4.180645 v 9.6387103 c 0,2.316077 -1.864568,4.180645 -4.180645,4.180645 H 6.1806433 c -2.3160773,0 -4.180645,-1.864568 -4.180645,-4.180645 V 9.1747847 c 0,-2.3160774 1.8645677,-4.180645 4.180645,-4.180645 z" /><path
     style="font-size:16.9333px;line-height:1.5;font-family:'Arial Black';-inkscape-font-specification:'Arial Black, ';baseline-shift:baseline;fill:url(#linearGradient6);stroke-width:0.187027"
     d="M 5.3693115,20.153959 V 8.0327584 h 3.1501891 v 1.2981095 q 0.6531889,-0.8185531 1.1988909,-1.1079406 0.7358705,-0.388606 1.6288375,-0.388606 1.76113,0 2.720242,1.3477187 0.967381,1.347719 0.967381,3.33209 0,2.191076 -1.050063,3.348626 -1.050063,1.149282 -2.654096,1.149282 -0.777212,0 -1.4221326,-0.264583 Q 9.271908,16.482872 8.767547,15.961975 v 4.191984 z m 3.3734309,-7.705975 q 0,1.041795 0.4382153,1.546156 0.4382153,0.504361 1.1079403,0.504361 0.587043,0 0.983918,-0.479556 0.396874,-0.487825 0.396874,-1.645375 0,-1.066599 -0.413411,-1.562692 -0.413411,-0.504361 -1.008722,-0.504361 -0.6449205,0 -1.0748675,0.504361 -0.4299471,0.504361 -0.4299471,1.637106 z"
     id="text3-9-9-3"
     aria-label="p" /></svg>
