<?xml version="1.0" encoding="UTF-8" standalone="no"?>
<svg
   width="16.404167mm"
   height="18mm"
   viewBox="0 0 16.404165 18"
   version="1.1"
   id="svg5"
   xml:space="preserve"
   sodipodi:docname="logo.svg"
   inkscape:version="1.4.2 (ebf0e940d0, 2025-05-08)"
   xmlns:inkscape="http://www.inkscape.org/namespaces/inkscape"
   xmlns:sodipodi="http://sodipodi.sourceforge.net/DTD/sodipodi-0.dtd"
   xmlns:xlink="http://www.w3.org/1999/xlink"
   xmlns="http://www.w3.org/2000/svg"
   xmlns:svg="http://www.w3.org/2000/svg"><sodipodi:namedview
     id="namedview1"
     pagecolor="#505050"
     bordercolor="#eeeeee"
     borderopacity="1"
     inkscape:showpageshadow="0"
     inkscape:pageopacity="0"
     inkscape:pagecheckerboard="0"
     inkscape:deskcolor="#d1d1d1"
     inkscape:document-units="mm"
     inkscape:zoom="11.313709"
     inkscape:cx="50.071998"
     inkscape:cy="44.370949"
     inkscape:window-width="2267"
     inkscape:window-height="1987"
     inkscape:window-x="0"
     inkscape:window-y="0"
     inkscape:window-maximized="0"
     inkscape:current-layer="svg5" /><defs
     id="defs2"><linearGradient
       id="linearGradient2795"><stop
         style="stop-color:#b8b8b8;stop-opacity:0.49803922;"
         offset="0"
         id="stop2797" /><stop
         style="stop-color:#7f7f7f;stop-opacity:0;"
         offset="1"
         id="stop2799" /></linearGradient><linearGradient
       id="linearGradient2787"><stop
         style="stop-color:#7f7f7f;stop-opacity:0.5;"
         offset="0"
         id="stop2789" /><stop
         style="stop-color:#7f7f7f;stop-opacity:0;"
         offset="1"
         id="stop2791" /></linearGradient><linearGradient
       id="linearGradient3676"><stop
         style="stop-color:#b2b2b2;stop-opacity:0.5;"
         offset="0"
         id="stop3678" /><stop
         style="stop-color:#b3b3b3;stop-opacity:0;"
         offset="1"
         id="stop3680" /></linearGradient><linearGradient
       id="linearGradient3236"><stop
         style="stop-color:#f4f4f4;stop-opacity:1"
         offset="0"
         id="stop3244" /><stop
         style="stop-color:white;stop-opacity:1"
         offset="1"
         id="stop3240" /></linearGradient><linearGradient
       id="linearGradient4671"><stop
         style="stop-color:#ffd43b;stop-opacity:1;"
         offset="0"
         id="stop4673" /><stop
         style="stop-color:#ffe873;stop-opacity:1"
         offset="1"
         id="stop4675" /></linearGradient><linearGradient
       id="linearGradient4689"><stop
         style="stop-color:#5a9fd4;stop-opacity:1;"
         offset="0"
         id="stop4691" /><stop
         style="stop-color:#306998;stop-opacity:1;"
         offset="1"
         id="stop4693" /></linearGradient><linearGradient
       x1="224.23996"
       y1="144.75717"
       x2="-65.308502"
       y2="144.75717"
       id="linearGradient2987"
       xlink:href="#linearGradient4671"
       gradientUnits="userSpaceOnUse"
       gradientTransform="translate(100.2702,99.61116)" /><linearGradient
       x1="172.94208"
       y1="77.475983"
       x2="26.670298"
       y2="76.313133"
       id="linearGradient2990"
       xlink:href="#linearGradient4689"
       gradientUnits="userSpaceOnUse"
       gradientTransform="translate(100.2702,99.61116)" /><linearGradient
       xlink:href="#linearGradient4671"
       id="linearGradient2255"
       gradientUnits="userSpaceOnUse"
       gradientTransform="matrix(0.562541,0,0,0.567972,-11.5974,-7.60954)"
       x1="224.23996"
       y1="144.75717"
       x2="-65.308502"
       y2="144.75717" /><linearGradient
       xlink:href="#linearGradient4689"
       id="linearGradient2258"
       gradientUnits="userSpaceOnUse"
       gradientTransform="matrix(0.562541,0,0,0.567972,-11.5974,-7.60954)"
       x1="172.94208"
       y1="76.176224"
       x2="26.670298"
       y2="76.313133" /><radialGradient
       xlink:href="#linearGradient2795"
       id="radialGradient2801"
       cx="61.518883"
       cy="132.28575"
       fx="61.518883"
       fy="132.28575"
       r="29.036913"
       gradientTransform="matrix(1,0,0,0.177966,0,108.7434)"
       gradientUnits="userSpaceOnUse" /><linearGradient
       xlink:href="#linearGradient4671"
       id="linearGradient1475"
       gradientUnits="userSpaceOnUse"
       gradientTransform="matrix(0.562541,0,0,0.567972,4.5792503,35.633427)"
       x1="150.96111"
       y1="192.35176"
       x2="112.03144"
       y2="137.27299" /><linearGradient
       xlink:href="#linearGradient4689"
       id="linearGradient1478"
       gradientUnits="userSpaceOnUse"
       gradientTransform="matrix(0.562541,0,0,0.567972,4.5792503,35.633427)"
       x1="26.648937"
       y1="20.603781"
       x2="135.66525"
       y2="114.39767" /><linearGradient
       xlink:href="#linearGradient4671"
       id="linearGradient1475-3"
       gradientUnits="userSpaceOnUse"
       gradientTransform="matrix(0.1052101,0,0,0.10622584,1.4858929,-33.477472)"
       x1="150.96111"
       y1="192.35176"
       x2="112.03144"
       y2="137.27299" /><linearGradient
       xlink:href="#linearGradient4689"
       id="linearGradient1478-1"
       gradientUnits="userSpaceOnUse"
       gradientTransform="matrix(0.562541,0,0,0.567972,4.5792503,35.633427)"
       x1="26.648937"
       y1="20.603781"
       x2="135.66525"
       y2="114.39767" /></defs><path
     id="rect1-28-1-0"
     style="font-variation-settings:normal;opacity:1;vector-effect:none;fill:#ffffff;fill-opacity:1;stroke-width:0.17523;stroke-linecap:butt;stroke-linejoin:miter;stroke-miterlimit:4;stroke-dasharray:none;stroke-dashoffset:0;stroke-opacity:1;-inkscape-stroke:none;stop-color:#000000;stop-opacity:1"
     d="M 4.1806234 0 C 1.864546 3.1332961e-16 2.5876074e-17 1.864546 0 4.1806234 L 0 13.819312 C 3.1332961e-16 16.135389 1.864546 17.999935 4.1806234 17.999935 L 12.223543 17.999935 C 14.539621 17.999935 16.404167 16.135389 16.404167 13.819312 L 16.404167 4.1806234 C 16.404167 1.864546 14.539621 2.5876074e-17 12.223543 0 L 4.1806234 0 z M 9.3472331 2.8401367 C 10.521319 2.8401367 11.428072 3.2893789 12.06748 4.1878581 C 12.712401 5.0863372 13.034863 6.1970404 13.034863 7.5199544 C 13.034863 8.980672 12.68484 10.096888 11.984798 10.868587 C 11.284756 11.634775 10.400052 12.017871 9.3306966 12.017871 C 8.8125553 12.017871 8.3385083 11.929676 7.9085612 11.753288 C 7.4841263 11.576899 7.1037862 11.315071 6.7675456 10.967806 L 6.7675456 15.159798 L 3.3693034 15.159798 L 3.3693034 3.0385742 L 6.5194987 3.0385742 L 6.5194987 4.3366862 C 6.9549579 3.7909841 7.3545905 3.4216684 7.7183919 3.2287435 C 8.2089725 2.9696728 8.7519217 2.8401367 9.3472331 2.8401367 z M 8.2475586 5.3123372 C 7.8176115 5.3123372 7.4593202 5.4804586 7.1726888 5.8166992 C 6.8860575 6.1529399 6.7427409 6.6986451 6.7427409 7.4538086 C 6.7427409 8.1483385 6.8888136 8.6637268 7.180957 8.9999674 C 7.4731006 9.3362081 7.8424162 9.5043294 8.2888997 9.5043294 C 8.6802618 9.5043294 9.0082362 9.3444764 9.272819 9.0247721 C 9.5374018 8.6995557 9.669694 8.1510944 9.669694 7.3793945 C 9.669694 6.6683283 9.5318896 6.1474278 9.2562826 5.8166992 C 8.9806754 5.4804586 8.6444328 5.3123372 8.2475586 5.3123372 z " /></svg>
